<svg width="78" height="81" viewBox="0 0 78 81" fill="none" xmlns="http://www.w3.org/2000/svg">
<path d="M38.5 75.5C57.3202 75.5 72.5 59.7868 72.5 40.5C72.5 21.2132 57.3202 5.5 38.5 5.5C19.6798 5.5 4.5 21.2132 4.5 40.5C4.5 59.7868 19.6798 75.5 38.5 75.5Z" stroke="#DB8AD0" stroke-width="3"/>
<path d="M43.8125 34.7812V44.5156C43.8125 45.2135 43.9844 45.6719 44.3281 45.8906C44.6719 46.099 45.1094 46.2031 45.6406 46.2031H46.0625V52H32.9062V46.2031H33.5156C34.0677 46.2031 34.474 46.0312 34.7344 45.6875C35.0052 45.3333 35.1406 44.9531 35.1406 44.5469V42.3438C35.1406 41.7396 34.9479 41.2969 34.5625 41.0156C34.1875 40.724 33.75 40.5781 33.25 40.5781H32.9062V34.7812H43.8125ZM34.8906 30.9375C34.8906 30.0417 35.2292 29.276 35.9062 28.6406C36.5938 28.0052 37.5677 27.6875 38.8281 27.6875C40.1094 27.6875 41.0938 28.0052 41.7812 28.6406C42.4792 29.276 42.8281 30.0417 42.8281 30.9375C42.8281 31.8542 42.4792 32.6302 41.7812 33.2656C41.0938 33.8906 40.1094 34.2031 38.8281 34.2031C37.5677 34.2031 36.5938 33.8906 35.9062 33.2656C35.2292 32.6302 34.8906 31.8542 34.8906 30.9375Z" fill="#DB8AD0"/>
</svg>
