<svg width="78" height="81" viewBox="0 0 78 81" fill="none" xmlns="http://www.w3.org/2000/svg">
<path d="M38.5 75.5C57.3202 75.5 72.5 59.7868 72.5 40.5C72.5 21.2132 57.3202 5.5 38.5 5.5C19.6798 5.5 4.5 21.2132 4.5 40.5C4.5 59.7868 19.6798 75.5 38.5 75.5Z" stroke="#DB8AD0" stroke-width="3"/>
<path d="M42.5781 37.5156V46.5938C42.5781 47.3125 42.6406 47.8385 42.7656 48.1719C42.901 48.5052 43.1667 48.8125 43.5625 49.0938C43.8854 49.3229 44.099 49.5208 44.2031 49.6875C44.3177 49.8438 44.375 50.0469 44.375 50.2969C44.375 51.6406 42.6719 52.3125 39.2656 52.3125C37.4323 52.3125 35.9792 52.1667 34.9062 51.875C34.5417 51.7708 34.2448 51.5885 34.0156 51.3281C33.7969 51.0677 33.6875 50.7708 33.6875 50.4375C33.6875 50.1562 33.7448 49.9375 33.8594 49.7812C33.974 49.625 34.2656 49.375 34.7344 49.0312C35.0573 48.7917 35.2865 48.401 35.4219 47.8594C35.5573 47.3177 35.625 46.5104 35.625 45.4375C35.625 45.0938 35.599 44.4531 35.5469 43.5156C35.5052 42.5677 35.474 42.0156 35.4531 41.8594C35.3906 41.4323 35.099 41.1042 34.5781 40.875C33.9323 40.5938 33.6094 40.1771 33.6094 39.625C33.6094 38.9688 34.0312 38.4792 34.875 38.1562C36.0417 37.7083 37.2917 37.3281 38.625 37.0156C39.9583 36.7031 40.9896 36.5469 41.7188 36.5469C42.2917 36.5469 42.5781 36.8698 42.5781 37.5156ZM39.4844 30.6719C40.3906 30.6719 41.1094 30.8438 41.6406 31.1875C42.1719 31.5208 42.4375 31.974 42.4375 32.5469C42.4375 33.349 42.0365 33.9844 41.2344 34.4531C39.9635 35.1927 38.4271 35.5625 36.625 35.5625C35.8646 35.5625 35.2604 35.4167 34.8125 35.125C34.2083 34.75 33.9062 34.2292 33.9062 33.5625C33.9062 32.6667 34.5469 31.9635 35.8281 31.4531C37.1302 30.9323 38.349 30.6719 39.4844 30.6719Z" fill="#DB8AD0"/>
</svg>
