<svg width="164" height="164" viewBox="0 0 164 164" fill="none" xmlns="http://www.w3.org/2000/svg">
<path d="M110.787 4H160V18.055H110.787V4Z" fill="white" stroke="#4C241D" stroke-width="7.90774" stroke-linecap="round" stroke-linejoin="round"/>
<path d="M110.787 18.0551H160V32.1101H110.787V18.0551Z" fill="#9DC1E4" stroke="#4C241D" stroke-width="7.90774" stroke-linecap="round" stroke-linejoin="round"/>
<path d="M110.787 32.1101H160V46.1651H110.787V32.1101Z" fill="#E66353" stroke="#4C241D" stroke-width="7.90774" stroke-linecap="round" stroke-linejoin="round"/>
<path d="M25.9616 38.578C27.4908 38.578 28.7305 37.2327 28.7305 35.5731C28.7305 33.9135 27.4908 32.5681 25.9616 32.5681C24.4324 32.5681 23.1927 33.9135 23.1927 35.5731C23.1927 37.2327 24.4324 38.578 25.9616 38.578Z" fill="#4C241D"/>
<path d="M155.47 83.5544C156.999 83.5544 158.239 82.209 158.239 80.5494C158.239 78.8898 156.999 77.5444 155.47 77.5444C153.941 77.5444 152.701 78.8898 152.701 80.5494C152.701 82.209 153.941 83.5544 155.47 83.5544Z" fill="#4C241D"/>
<path d="M132.158 114.475C133.688 114.475 134.927 113.13 134.927 111.47C134.927 109.811 133.688 108.465 132.158 108.465C130.629 108.465 129.389 109.811 129.389 111.47C129.389 113.13 130.629 114.475 132.158 114.475Z" fill="#4C241D"/>
<path d="M132.158 75.1213C133.688 75.1213 134.927 73.7759 134.927 72.1163C134.927 70.4567 133.688 69.1113 132.158 69.1113C130.629 69.1113 129.389 70.4567 129.389 72.1163C129.389 73.7759 130.629 75.1213 132.158 75.1213Z" fill="#4C241D"/>
<path d="M35.2628 48.9761H93.065C94.3303 48.9761 95.5439 49.5216 96.4386 50.4926C97.3334 51.4637 97.836 52.7807 97.836 54.1539V96.5158C97.836 99.5635 96.7205 102.486 94.7347 104.641C92.749 106.797 90.0557 108.007 87.2474 108.007H41.0804C38.2721 108.007 35.5788 106.797 33.5931 104.641C31.6073 102.486 30.4918 99.5635 30.4918 96.5158V54.1539C30.4918 52.7807 30.9944 51.4637 31.8892 50.4926C32.7839 49.5216 33.9975 48.9761 35.2628 48.9761Z" fill="#FC8C29" stroke="#4C241D" stroke-width="7.90774" stroke-linecap="round" stroke-linejoin="round"/>
<path d="M16.4689 5.64722L23.7939 13.5967" stroke="#4C241D" stroke-width="7.90774" stroke-linecap="round" stroke-linejoin="round"/>
<path d="M23.7939 5.64722L16.4689 13.5967" stroke="#4C241D" stroke-width="7.90774" stroke-linecap="round" stroke-linejoin="round"/>
<path d="M110.787 20.8661V155.794" stroke="#4C241D" stroke-width="7.90774" stroke-linecap="round" stroke-linejoin="round"/>
<path d="M153.556 148.205C133.244 140.028 111.73 135.932 90.0658 136.117C56.6371 136.117 26.4255 145.211 4.78723 159.859" stroke="#4C241D" stroke-width="7.90774" stroke-linecap="round" stroke-linejoin="round"/>
<path d="M25.3114 74.2753H20.1311C17.3833 74.2753 14.748 73.0906 12.805 70.982C10.862 68.8733 9.77045 66.0134 9.77045 63.0312H25.3114V74.2753Z" fill="white" stroke="#4C241D" stroke-width="7.90774" stroke-linecap="round" stroke-linejoin="round"/>
<path d="M103.016 63.0312H118.557C118.557 66.0134 117.466 68.8733 115.523 70.982C113.58 73.0906 110.945 74.2753 108.197 74.2753H103.016V63.0312Z" fill="white" stroke="#4C241D" stroke-width="7.90774" stroke-linecap="round" stroke-linejoin="round"/>
<path d="M64.164 15.244C70.3466 15.244 76.276 17.9094 80.6477 22.6539C85.0195 27.3984 87.4755 33.8334 87.4755 40.5431V63.0311H40.8525V40.5431C40.8525 33.8334 43.3086 27.3984 47.6803 22.6539C52.0521 17.9094 57.9814 15.244 64.164 15.244Z" fill="white" stroke="#4C241D" stroke-width="7.90774" stroke-linecap="round" stroke-linejoin="round"/>
<path d="M50.1282 37.7321C49.0859 37.7213 48.0636 38.0425 47.1878 38.6557C46.3119 39.269 45.621 40.1474 45.2004 41.1824C44.7798 42.2174 44.648 43.3635 44.8213 44.4789C44.9946 45.5943 45.4655 46.6301 46.1756 47.4582C51.0969 52.2704 57.5433 54.8291 64.1643 54.5981C70.6085 54.8084 76.8934 52.4028 81.7903 47.8517C82.5877 47.0592 83.1459 46.0238 83.3918 44.8811C83.6377 43.7385 83.5598 42.5419 83.1684 41.4481C82.777 40.3542 82.0904 39.4142 81.1983 38.7512C80.3063 38.0881 79.2505 37.7329 78.1693 37.7321H50.1282Z" fill="#9DC1E4" stroke="#4C241D" stroke-width="7.90774" stroke-linecap="round" stroke-linejoin="round"/>
<path d="M103.016 63.0312H25.3115V79.8973H43.4426V144.688C43.4426 147.634 44.5208 150.459 46.44 152.542C48.3592 154.624 50.9622 155.794 53.6764 155.794H74.6567C77.3699 155.793 79.9716 154.622 81.8897 152.54C83.8078 150.457 84.8852 147.633 84.8852 144.688V79.8973H103.016V63.0312Z" fill="white" stroke="#4C241D" stroke-width="7.90774" stroke-linecap="round" stroke-linejoin="round"/>
<path d="M64.1639 124.873V155.794" stroke="#4C241D" stroke-width="7.90774" stroke-linecap="round" stroke-linejoin="round"/>
<path d="M56.3934 82.7083H71.9344" stroke="#4C241D" stroke-width="7.90774" stroke-linecap="round" stroke-linejoin="round"/>
<path d="M82.2952 9.62219V23.8852" stroke="#4C241D" stroke-width="7.90774" stroke-linecap="round" stroke-linejoin="round"/>
</svg>
